<svg width="981" height="802" viewBox="0 0 981 802" fill="none" xmlns="http://www.w3.org/2000/svg">
<path d="M0 749.911H148.529" stroke="#292929" stroke-width="1.58756" stroke-miterlimit="22.9256"/>
<path d="M832.071 751.532L980.6 753.07" stroke="#292929" stroke-width="1.58756" stroke-miterlimit="22.9256"/>
<path d="M45.3944 556.038V650.165H89.8235V678.965H13.2581V556.038H45.3944V556.038ZM223.567 617.502C223.567 636.233 217.655 651.569 205.831 663.511C194.124 675.335 178.963 681.247 160.348 681.247C152.036 681.247 144.134 679.901 136.641 677.208C129.265 674.516 122.592 670.594 116.621 665.443C110.768 660.292 106.085 653.618 102.572 645.423C99.1777 637.111 97.4799 627.804 97.4799 617.501C97.4799 603.921 100.583 592.214 106.787 582.379C112.993 572.428 120.778 565.17 130.143 560.604C139.626 555.921 149.871 553.58 160.875 553.58C168.836 553.58 176.504 554.984 183.88 557.794C191.372 560.486 198.046 564.409 203.899 569.56C209.87 574.711 214.611 581.443 218.123 589.755C221.753 597.95 223.567 607.199 223.567 617.501L223.567 617.502ZM129.616 617.502C129.616 627.921 132.661 636.116 138.748 642.087C144.836 647.94 152.094 650.867 160.524 650.867C168.836 650.867 176.036 647.94 182.124 642.087C188.329 636.116 191.431 627.921 191.431 617.502C191.431 607.082 188.387 598.945 182.299 593.092C176.212 587.121 169.07 584.135 160.875 584.135C152.212 584.135 144.836 587.063 138.748 592.916C132.661 598.653 129.616 606.847 129.616 617.501V617.502ZM236.904 617.677C236.904 604.213 240.065 592.565 246.387 582.731C252.709 572.897 260.552 565.755 269.919 561.307C279.284 556.741 289.353 554.458 300.124 554.458C308.669 554.458 316.689 555.863 324.182 558.672C331.674 561.482 338.407 566.165 344.377 572.721C350.348 579.277 354.387 587.297 356.494 596.779H325.236C322.543 591.98 319.206 588.526 315.226 586.418C311.245 584.311 306.211 583.257 300.124 583.257C290.524 583.257 282.972 586.536 277.47 593.092C272.085 599.647 269.392 607.784 269.392 617.501C269.392 627.804 272.143 635.998 277.646 642.087C283.265 648.175 290.757 651.218 300.124 651.218C306.797 651.218 312.182 650.164 316.28 648.057C320.377 645.832 323.831 641.911 326.641 636.291H300.475V609.248H358.426C359.48 623.413 358.367 635.296 355.089 644.896C350.875 657.071 343.733 666.087 333.665 671.94C323.714 677.677 312.533 680.545 300.124 680.545C292.162 680.545 284.435 679.198 276.943 676.506C269.568 673.813 262.835 669.95 256.748 664.915C250.777 659.881 245.977 653.267 242.348 645.072C238.719 636.877 236.904 627.745 236.904 617.677V617.677ZM419.847 652.974H435.477V678.965H372.082V652.974H387.711V582.029H373.487V556.038H434.072V582.029H419.847V652.974V652.974ZM450.936 641.209H481.492C481.492 645.189 483.424 648.291 487.287 650.516C491.15 652.74 495.716 653.852 500.984 653.852C505.902 653.852 510.234 652.799 513.98 650.691C517.843 648.584 519.775 645.774 519.775 642.262C519.775 640.389 519.424 638.75 518.721 637.345C518.136 635.823 517.141 634.653 515.736 633.833C514.331 632.897 513.043 632.194 511.872 631.726C510.819 631.141 509.121 630.73 506.78 630.496C504.555 630.145 502.975 629.911 502.038 629.794C501.102 629.677 499.463 629.56 497.121 629.443C491.15 629.092 485.589 628.213 480.439 626.809C475.404 625.404 470.662 623.355 466.214 620.663C461.882 617.97 458.429 614.34 455.853 609.775C453.395 605.092 452.165 599.648 452.165 593.443C452.165 580.682 456.789 570.79 466.038 563.765C475.288 556.741 486.585 553.229 499.931 553.229C508.126 553.229 515.736 554.692 522.76 557.619C529.902 560.429 535.755 564.994 540.321 571.316C545.004 577.521 547.287 584.897 547.17 593.443H517.14C517.023 589.463 515.385 586.477 512.223 584.487C509.062 582.497 505.141 581.502 500.457 581.502C489.336 581.502 483.774 585.248 483.774 592.741C483.774 596.604 485.237 599.296 488.165 600.819C491.209 602.341 496.009 603.453 502.565 604.155C508.418 604.624 513.51 605.267 517.842 606.087C522.174 606.906 526.564 608.253 531.013 610.126C535.462 611.882 539.091 614.107 541.901 616.799C544.711 619.375 546.993 622.887 548.75 627.336C550.623 631.668 551.559 636.701 551.559 642.438C551.559 654.614 546.584 664.214 536.633 671.238C526.681 678.262 514.915 681.775 501.335 681.775C487.286 681.775 475.287 678.262 465.335 671.238C455.501 664.214 450.701 654.204 450.935 641.209L450.936 641.209ZM590.295 584.135H560.09V556.038H651.408V584.135H621.378V678.964H590.295V584.135V584.135ZM710.872 652.974H726.502V678.964H663.107V652.974H678.736V582.028H664.511V556.038H725.096V582.028H710.872V652.974H710.872ZM739.897 617.677C739.897 607.491 741.653 598.302 745.165 590.106C748.797 581.911 753.594 575.297 759.565 570.262C765.536 565.228 772.209 561.424 779.584 558.848C786.96 556.155 794.687 554.809 802.765 554.809C811.665 554.809 820.031 556.331 827.877 559.375C835.835 562.418 842.86 567.57 848.95 574.828C855.152 582.087 859.016 590.926 860.54 601.345H829.633C825.538 589.637 816.582 583.784 802.765 583.784C793.514 583.784 786.082 586.887 780.463 593.091C774.843 599.179 772.033 607.316 772.033 617.501C772.033 626.633 774.843 634.477 780.463 641.033C786.201 647.588 793.633 650.867 802.765 650.867C809.67 650.867 815.528 649.228 820.326 645.95C825.124 642.671 828.348 637.813 829.984 631.374H860.892C859.367 642.496 855.567 651.862 849.477 659.471C843.387 666.964 836.362 672.291 828.404 675.452C820.558 678.613 812.016 680.193 802.765 680.193C794.807 680.193 787.08 678.847 779.585 676.155C772.209 673.462 765.536 669.599 759.565 664.564C753.595 659.53 748.797 652.974 745.165 644.896C741.653 636.701 739.897 627.628 739.897 617.677L739.897 617.677ZM873.493 641.209H904.049C904.049 645.189 905.981 648.291 909.844 650.516C913.708 652.74 918.274 653.852 923.542 653.852C928.459 653.852 932.793 652.799 936.537 650.691C940.4 648.584 942.332 645.774 942.332 642.262C942.332 640.389 941.981 638.75 941.278 637.345C940.695 635.823 939.698 634.653 938.293 633.833C936.888 632.897 935.603 632.194 934.43 631.726C933.376 631.141 931.683 630.73 929.337 630.496C927.117 630.145 925.537 629.911 924.595 629.794C923.661 629.677 922.025 629.56 919.679 629.443C913.708 629.092 908.151 628.213 902.996 626.809C897.966 625.404 893.224 623.355 888.771 620.663C884.444 617.97 880.988 614.34 878.41 609.775C875.952 605.092 874.722 599.648 874.722 593.443C874.722 580.682 879.351 570.79 888.595 563.765C897.846 556.741 909.142 553.229 922.488 553.229C930.685 553.229 938.293 554.692 945.317 557.619C952.461 560.429 958.312 564.994 962.878 571.316C967.563 577.521 969.846 584.897 969.727 593.443H939.698C939.585 589.463 937.941 586.477 934.78 584.487C931.619 582.497 927.7 581.502 923.015 581.502C911.895 581.502 906.332 585.248 906.332 592.741C906.332 596.604 907.8 599.296 910.722 600.819C913.77 602.341 918.568 603.453 925.122 604.155C930.98 604.624 936.073 605.267 940.4 606.087C944.734 606.906 949.124 608.253 953.571 610.126C958.024 611.882 961.649 614.107 964.458 616.799C967.268 619.375 969.551 622.887 971.307 627.336C973.183 631.668 974.117 636.701 974.117 642.438C974.117 654.614 969.143 664.214 959.19 671.238C949.244 678.262 937.478 681.775 923.893 681.775C909.844 681.775 897.846 678.262 887.893 671.238C878.059 664.214 873.261 654.204 873.493 641.209L873.493 641.209Z" fill="white"/>
<path d="M178.658 768.876H203.103C203.103 772.06 204.648 774.543 207.738 776.322C210.829 778.101 214.482 778.992 218.697 778.992C222.63 778.992 226.095 778.149 229.092 776.463C232.183 774.777 233.729 772.529 233.729 769.719C233.729 768.221 233.448 766.91 232.886 765.786C232.417 764.569 231.621 763.631 230.497 762.976C229.373 762.227 228.343 761.665 227.407 761.29C226.564 760.822 225.206 760.494 223.333 760.307C221.553 760.026 220.289 759.838 219.539 759.745C218.79 759.652 217.479 759.557 215.606 759.464C210.829 759.183 206.381 758.48 202.26 757.357C198.232 756.233 194.439 754.594 190.88 752.439C187.415 750.285 184.651 747.382 182.591 743.729C180.624 739.983 179.641 735.628 179.641 730.664C179.641 720.455 183.341 712.541 190.74 706.922C198.138 701.302 207.177 698.492 217.853 698.492C224.409 698.492 230.497 699.663 236.117 702.004C241.83 704.252 246.513 707.905 250.166 712.963C253.912 717.927 255.738 723.827 255.645 730.664H231.621C231.528 727.48 230.216 725.092 227.688 723.499C225.159 721.907 222.021 721.111 218.275 721.111C209.377 721.111 204.929 724.108 204.929 730.102C204.929 733.193 206.1 735.347 208.441 736.564C210.876 737.781 214.716 738.672 219.961 739.233C224.644 739.608 228.718 740.124 232.183 740.779C235.648 741.434 239.16 742.512 242.72 744.01C246.279 745.415 249.182 747.194 251.43 749.348C253.678 751.409 255.504 754.219 256.908 757.778C258.407 761.243 259.156 765.271 259.156 769.86C259.156 779.601 255.176 787.28 247.215 792.9C239.255 798.519 229.842 801.329 218.977 801.329C207.738 801.329 198.138 798.519 190.177 792.9C182.31 787.28 178.47 779.272 178.658 768.876H178.658ZM306.337 733.333H307.461L325.303 700.74H352.558V704.533L319.684 760.166V799.081H293.975V760.166L260.96 704.533V700.74H288.496L306.337 733.333V733.333ZM355.638 768.876H380.083C380.083 772.06 381.628 774.543 384.719 776.322C387.81 778.101 391.463 778.992 395.678 778.992C399.611 778.992 403.076 778.149 406.073 776.463C409.164 774.777 410.71 772.529 410.71 769.719C410.71 768.221 410.428 766.91 409.867 765.786C409.398 764.569 408.602 763.631 407.478 762.976C406.354 762.227 405.324 761.665 404.388 761.29C403.545 760.822 402.187 760.494 400.313 760.307C398.534 760.026 397.27 759.838 396.52 759.745C395.771 759.652 394.46 759.557 392.587 759.464C387.81 759.183 383.361 758.48 379.24 757.357C375.213 756.233 371.42 754.594 367.861 752.439C364.396 750.285 361.632 747.382 359.572 743.729C357.605 739.983 356.622 735.628 356.622 730.664C356.622 720.455 360.321 712.541 367.72 706.922C375.119 701.302 384.157 698.492 394.834 698.492C401.39 698.492 407.478 699.663 413.097 702.004C418.811 704.252 423.494 707.905 427.146 712.963C430.892 717.927 432.719 723.827 432.625 730.664H408.602C408.509 727.48 407.197 725.092 404.668 723.499C402.14 721.907 399.002 721.111 395.256 721.111C386.358 721.111 381.91 724.108 381.91 730.102C381.91 733.193 383.081 735.347 385.422 736.564C387.857 737.781 391.697 738.672 396.942 739.233C401.625 739.608 405.699 740.124 409.164 740.779C412.629 741.434 416.142 742.512 419.701 744.01C423.26 745.415 426.163 747.194 428.411 749.348C430.659 751.409 432.485 754.219 433.89 757.778C435.389 761.243 436.138 765.271 436.138 769.86C436.138 779.601 432.157 787.28 424.197 792.9C416.236 798.519 406.823 801.329 395.959 801.329C384.72 801.329 375.119 798.519 367.159 792.9C359.292 787.28 355.451 779.272 355.639 768.876H355.638ZM467.126 723.218H442.963V700.74H516.016V723.218H491.993V799.081H467.126V723.218ZM590.56 700.74V723.078H554.877V737.126H587.751V759.604H554.877V775.62H591.825V799.081H529.167V700.74H590.56H590.56ZM657.754 743.027L696.669 700.459H705.8V799.081H680.091V753.704L659.159 775.62H656.205L635.272 753.704V799.081H609.563V700.459H618.695L657.754 743.027V743.027ZM721.95 768.876H746.395C746.395 772.06 747.94 774.543 751.03 776.322C754.121 778.101 757.774 778.992 761.989 778.992C765.922 778.992 769.385 778.149 772.385 776.463C775.475 774.777 777.021 772.529 777.021 769.719C777.021 768.221 776.74 766.91 776.177 765.786C775.707 764.569 774.913 763.631 773.789 762.976C772.665 762.227 771.633 761.665 770.699 761.29C769.856 760.822 768.493 760.494 766.625 760.307C764.841 760.026 763.576 759.838 762.831 759.745C762.08 759.652 760.766 759.557 758.898 759.464C754.121 759.183 749.668 758.48 745.551 757.357C741.52 756.233 737.726 754.594 734.172 752.439C730.702 750.285 727.941 747.382 725.883 743.729C723.916 739.983 722.933 735.628 722.933 730.664C722.933 720.455 726.628 712.541 734.031 706.922C741.428 701.302 750.469 698.492 761.145 698.492C767.699 698.492 773.789 699.663 779.409 702.004C785.12 704.252 789.805 707.905 793.458 712.963C797.202 717.927 799.028 723.827 798.937 730.664H774.913C774.815 727.48 773.508 725.092 770.98 723.499C768.451 721.907 765.311 721.111 761.567 721.111C752.667 721.111 748.221 724.108 748.221 730.102C748.221 733.193 749.387 735.347 751.733 736.564C754.164 737.781 758.006 738.672 763.253 739.233C767.931 739.608 772.005 740.124 775.475 740.779C778.938 741.434 782.451 742.512 786.012 744.01C789.567 745.415 792.475 747.194 794.722 749.348C796.97 751.409 798.796 754.219 800.201 757.778C801.697 761.243 802.449 765.271 802.449 769.86C802.449 779.601 798.466 787.28 790.507 792.9C782.542 798.519 773.129 801.329 762.27 801.329C751.03 801.329 741.428 798.519 733.47 792.9C725.602 787.28 721.76 779.272 721.95 768.876V768.876Z" fill="#FF0000"/>
<path fill-rule="evenodd" clip-rule="evenodd" d="M593.281 139.428C676.337 137.732 766.6 135.887 807.301 253.013C915.387 272.818 942.585 289.098 947.863 296.651C959.889 313.854 978.493 349.519 974.717 397.772H978.493C977.654 425.325 957.598 483.704 914.296 490.082C914.296 489.584 914.607 488.315 915.068 486.41C920.095 465.817 943.198 371.067 788.419 377.212C788.151 377.212 787.605 377.242 786.791 377.287C765.669 378.443 566.281 389.358 529.112 138.465C549.253 140.328 571.008 139.884 593.281 139.428L593.281 139.428ZM658.569 167.972C649.181 167.42 640.311 166.899 632.331 165.738C644.457 254.132 705.609 251.759 751.369 249.982C765.769 249.423 778.651 248.923 787.999 251.335C760.239 173.944 703.477 170.61 658.569 167.972V167.972Z" fill="white"/>
<path d="M846.322 535.398C883.4 535.398 913.457 502.523 913.457 461.97C913.457 421.416 883.4 388.541 846.322 388.541C809.245 388.541 779.188 421.416 779.188 461.97C779.188 502.523 809.245 535.398 846.322 535.398Z" fill="white"/>
<path d="M657.926 360.428C622.969 343.21 576.106 307.839 558.484 288.678C590.037 399.786 526.874 468.403 495.964 488.823H773.314C761.565 433.857 777.09 416.654 811.496 384.345C733.033 393.156 686.039 374.275 657.926 360.428H657.926Z" fill="#FF0000"/>
<path d="M2.10628 488.404V10.1222H98.9779V427.075C179.494 428.447 351.933 429.38 397.56 422.136C454.592 413.081 463.398 361.63 437.817 332.818C412.237 304.006 369.881 298.655 334.656 285.484C305.752 274.677 278.042 262.163 257.075 246.426C236.107 230.688 223.71 211.851 217.236 190.816C210.763 169.78 202.559 114.257 227.72 73.9205C252.881 33.5836 299.698 13.761 334.656 7.2411C389.591 -3.00477 474.302 -9.22298 579.56 37.6997C704.417 83.3559 736.776 136.411 753.979 166.469C742.407 146.404 646.049 126.598 599.27 119.197C576.066 115.081 526.973 105.778 516.237 101.498C505.502 97.2179 421.043 74.7441 366.946 83.3874C312.849 92.0307 302.944 127.467 311.591 145.539C321.656 166.575 343.043 181.11 369.881 190.816C403.011 202.796 481.011 224.735 512.044 254.246C606.399 343.976 538.463 466.633 465.075 488.404H2.10608H2.10628Z" fill="white"/>
</svg>
