<svg width="333" height="182" viewBox="0 0 333 182" fill="none" xmlns="http://www.w3.org/2000/svg">
<path fill-rule="evenodd" clip-rule="evenodd" d="M201.471 47.3606C229.676 46.7843 260.328 46.1578 274.149 85.9429C310.854 92.6701 320.09 98.2001 321.883 100.765C325.967 106.609 332.285 118.724 331.002 135.114H332.285C332 144.473 325.189 164.303 310.484 166.47C310.484 166.301 310.589 165.87 310.746 165.222C312.453 158.228 320.298 126.043 267.738 128.13C267.646 128.13 267.461 128.141 267.185 128.156C260.012 128.549 192.302 132.256 179.68 47.0334C186.52 47.6663 193.907 47.5154 201.471 47.3605L201.471 47.3606ZM223.642 57.0561C220.454 56.8689 217.442 56.6919 214.732 56.2975C218.85 86.3229 239.616 85.5168 255.156 84.9132C260.046 84.7235 264.42 84.5535 267.595 85.3728C258.168 59.0848 238.892 57.9523 223.642 57.0561Z" fill="white"/>
<path d="M287.401 181.863C299.992 181.863 310.199 170.696 310.199 156.921C310.199 143.146 299.992 131.979 287.401 131.979C274.81 131.979 264.603 143.146 264.603 156.921C264.603 170.696 274.81 181.863 287.401 181.863Z" fill="white"/>
<path d="M223.424 122.429C211.553 116.581 195.639 104.566 189.654 98.0576C200.369 135.798 178.92 159.106 168.424 166.042H262.608C258.618 147.371 263.89 141.528 275.574 130.553C248.929 133.546 232.971 127.133 223.424 122.429H223.424Z" fill="#FF0000"/>
<path d="M0.715279 165.9V3.43821H33.6117V145.068C60.9541 145.534 119.512 145.851 135.007 143.39C154.374 140.314 157.365 122.838 148.678 113.051C139.991 103.264 125.607 101.446 113.645 96.9723C103.83 93.3014 94.4199 89.051 87.2995 83.7052C80.1791 78.3593 75.9691 71.9611 73.7708 64.8157C71.5725 57.6704 68.7866 38.8106 77.331 25.109C85.8754 11.4075 101.774 4.67423 113.645 2.45956C132.301 -1.02074 161.067 -3.13292 196.812 12.8056C239.212 28.314 250.2 46.3356 256.042 56.5456C252.112 49.73 219.391 43.0026 203.505 40.4884C195.625 39.0902 178.954 35.9304 175.308 34.4766C171.662 33.0227 142.981 25.3888 124.611 28.3248C106.24 31.2607 102.876 43.2976 105.813 49.4363C109.231 56.5817 116.493 61.5188 125.607 64.8157C136.858 68.8852 163.346 76.3375 173.884 86.3616C205.926 116.841 182.856 158.505 157.934 165.9H0.71521H0.715279Z" fill="white"/>
</svg>
