<svg width="8" height="8" viewBox="0 0 8 8" fill="none" xmlns="http://www.w3.org/2000/svg">
<path d="M0.37293 1.26408L1.4069 0.231068C1.47983 0.157809 1.56652 0.0996835 1.66199 0.0600296C1.75746 0.0203757 1.85982 -2.47763e-05 1.9632 2.25821e-08C2.17387 2.25821e-08 2.37193 0.0825243 2.52047 0.231068L3.63307 1.34369C3.70633 1.41663 3.76446 1.50332 3.80411 1.59879C3.84376 1.69426 3.86416 1.79662 3.86414 1.9C3.86414 2.11068 3.78162 2.30874 3.63307 2.45728L2.8195 3.27087C3.00994 3.69064 3.27471 4.07251 3.60104 4.39806C3.92655 4.72518 4.30838 4.99092 4.7282 5.18252L5.54178 4.36893C5.61472 4.29567 5.70141 4.23755 5.79688 4.19789C5.89235 4.15824 5.99471 4.13784 6.09809 4.13786C6.30876 4.13786 6.50682 4.22039 6.65536 4.36893L7.76893 5.48058C7.84228 5.55366 7.90046 5.64051 7.94011 5.73615C7.97977 5.83179 8.00012 5.93433 8 6.03786C8 6.24854 7.91748 6.4466 7.76893 6.59515L6.73691 7.62718C6.50002 7.86505 6.17284 8 5.83693 8C5.76605 8 5.69809 7.99417 5.6311 7.98252C4.32238 7.76699 3.02435 7.07087 1.97679 6.02427C0.930202 4.97864 0.235068 3.68155 0.0166245 2.36893C-0.0493937 1.96796 0.0836139 1.55534 0.37293 1.26408Z" fill="#FC0002"/>
</svg>
