<?xml version="1.0" encoding="UTF-8"?>
<!DOCTYPE svg PUBLIC "-//W3C//DTD SVG 1.1//EN" "http://www.w3.org/Graphics/SVG/1.1/DTD/svg11.dtd">
<!-- Creator: CorelDRAW 2021 (64-Bit) -->
<svg xmlns="http://www.w3.org/2000/svg" xml:space="preserve" width="980.608mm" height="801.329mm" version="1.1" style="shape-rendering:geometricPrecision; text-rendering:geometricPrecision; image-rendering:optimizeQuality; fill-rule:evenodd; clip-rule:evenodd"
viewBox="0 0 48494.1 39628.18"
 xmlns:xlink="http://www.w3.org/1999/xlink"
 xmlns:xodm="http://www.corel.com/coreldraw/odm/2003">
 <defs>
  <style type="text/css">
   <![CDATA[
    .str0 {stroke:#292929;stroke-width:78.51;stroke-miterlimit:22.9256}
    .fil0 {fill:none}
    .fil3 {fill:#292929}
    .fil1 {fill:#292929;fill-rule:nonzero}
    .fil2 {fill:red;fill-rule:nonzero}
   ]]>
  </style>
 </defs>
 <g id="Слой_x0020_1">
  <metadata id="CorelCorpID_0Corel-Layer"/>
  <g id="_2428736689488">
   <g>
    <line class="fil0 str0" x1="-0" y1="37085.39" x2="7345.2" y2= "37085.39" />
    <line class="fil0 str0" x1="41148.46" y1="37165.57" x2="48493.69" y2= "37241.61" />
    <path class="fil1" d="M2244.89 27497.8l0 4654.85 2197.16 0 0 1424.24 -3786.4 0 0 -6079.09 1589.24 0zm8811.19 3039.55c0,926.34 -292.35,1684.76 -877.12,2275.31 -578.93,584.73 -1328.71,877.12 -2249.27,877.12 -411.05,0 -801.84,-66.59 -1172.39,-199.75 -364.74,-133.14 -694.75,-327.11 -990.02,-581.85 -289.47,-254.73 -521.06,-584.75 -694.76,-990.03 -167.88,-411.05 -251.84,-871.32 -251.84,-1380.81 0,-671.58 153.44,-1250.55 460.27,-1736.89 306.88,-492.13 691.88,-851.07 1155.03,-1076.87 468.96,-231.6 975.58,-347.37 1519.78,-347.37 393.72,0 772.9,69.47 1137.66,208.42 370.54,133.14 700.55,327.11 990.02,581.85 295.27,254.73 529.75,587.66 703.44,998.71 179.49,405.28 269.21,862.64 269.21,1372.15zm-4646.15 0c0,515.25 150.55,920.54 451.59,1215.81 301.07,289.46 660.02,434.22 1076.87,434.22 411.08,0 767.14,-144.76 1068.18,-434.22 306.87,-295.27 460.27,-700.56 460.27,-1215.81 0,-515.27 -150.52,-917.67 -451.58,-1207.14 -301.04,-295.28 -654.21,-442.92 -1059.5,-442.92 -428.42,0 -793.17,144.76 -1094.24,434.22 -301.04,283.71 -451.59,688.96 -451.59,1215.83zm5305.72 8.68c0,-665.82 156.32,-1241.88 468.95,-1728.2 312.65,-486.33 700.52,-839.51 1163.72,-1059.5 463.16,-225.79 961.06,-338.69 1493.72,-338.69 422.62,0 819.21,69.48 1189.77,208.42 370.5,138.95 703.44,370.55 998.7,694.76 295.27,324.19 495.01,720.8 599.23,1189.75l-1545.83 0c-133.18,-237.36 -298.19,-408.16 -495.01,-512.38 -196.86,-104.21 -445.81,-156.32 -746.85,-156.32 -474.76,0 -848.2,162.12 -1120.29,486.33 -266.34,324.19 -399.48,726.6 -399.48,1207.14 0,509.49 136.03,914.73 408.16,1215.81 277.91,301.07 648.41,451.59 1111.61,451.59 330,0 596.3,-52.11 798.96,-156.33 202.62,-110.01 373.43,-303.95 512.38,-581.85l-1293.97 0 0 -1337.4 2865.85 0c52.11,700.55 -2.91,1288.17 -165.01,1762.94 -208.42,602.1 -561.6,1047.93 -1059.5,1337.4 -492.12,283.7 -1045.05,425.53 -1658.72,425.53 -393.72,0 -775.83,-66.59 -1146.35,-199.74 -364.74,-133.16 -697.67,-324.21 -998.7,-573.18 -295.27,-248.96 -532.67,-576.05 -712.12,-981.34 -179.49,-405.27 -269.22,-856.86 -269.22,-1354.76zm9047.1 1745.56l772.92 0 0 1285.3 -3135.06 0 0 -1285.3 772.9 0 0 -3508.49 -703.44 0 0 -1285.3 2996.12 0 0 1285.3 -703.44 0 0 3508.49zm1537.43 -581.86l1511.08 0c0,196.86 95.53,350.26 286.59,460.28 191.05,110.01 416.85,165 677.38,165 243.17,0 457.4,-52.09 642.65,-156.32 191.06,-104.21 286.59,-243.17 286.59,-416.85 0,-92.64 -17.37,-173.69 -52.11,-243.17 -28.94,-75.27 -78.16,-133.14 -147.63,-173.68 -69.48,-46.31 -133.16,-81.05 -191.06,-104.21 -52.11,-28.94 -136.07,-49.24 -251.85,-60.8 -110.01,-17.36 -188.17,-28.94 -234.47,-34.73 -46.31,-5.81 -127.38,-11.57 -243.17,-17.37 -295.28,-17.37 -570.29,-60.8 -825.01,-130.26 -248.97,-69.48 -483.46,-170.81 -703.45,-303.95 -214.22,-133.16 -384.99,-312.65 -512.38,-538.44 -121.58,-231.59 -182.37,-500.82 -182.37,-807.64 0,-631.08 228.67,-1120.29 686.07,-1467.67 457.4,-347.37 1016.08,-521.06 1676.08,-521.06 405.29,0 781.61,72.35 1128.98,217.1 353.17,138.96 642.65,364.74 868.44,677.39 231.6,306.84 344.5,671.58 338.69,1094.24l-1485.04 0c-5.8,-196.86 -86.83,-344.5 -243.17,-442.91 -156.32,-98.41 -350.25,-147.63 -581.85,-147.63 -550.01,0 -825.03,185.26 -825.03,555.8 0,191.06 72.35,324.2 217.12,399.48 150.52,75.27 387.91,130.27 712.11,165.01 289.47,23.16 541.31,54.98 755.54,95.52 214.23,40.53 431.33,107.1 651.34,199.74 220,86.85 399.48,196.86 538.43,330.02 138.94,127.38 251.84,301.07 338.69,521.06 92.64,214.23 138.94,463.16 138.94,746.87 0,602.11 -246.04,1076.86 -738.17,1424.24 -492.12,347.37 -1073.98,521.06 -1745.57,521.06 -694.76,0 -1288.17,-173.69 -1780.31,-521.06 -486.33,-347.39 -723.69,-842.39 -712.11,-1485.04zm6891.73 -2822.44l-1493.72 0 0 -1389.5 4515.93 0 0 1389.5 -1485.07 0 0 4689.59 -1537.14 0 0 -4689.59zm5962.92 3404.29l772.92 0 0 1285.3 -3135.08 0 0 -1285.3 772.91 0 0 -3508.49 -703.44 0 0 -1285.3 2996.12 0 0 1285.3 -703.44 0 0 3508.49zm1435.36 -1745.56c0,-503.7 86.85,-958.17 260.53,-1363.46 179.59,-405.28 416.85,-732.37 712.11,-981.34 295.27,-248.96 625.28,-437.1 990.03,-564.49 364.75,-133.14 746.86,-199.73 1146.34,-199.73 440.13,0 853.86,75.27 1241.88,225.79 393.57,150.52 740.95,405.29 1042.13,764.22 306.72,358.96 497.78,796.09 573.17,1311.34l-1528.46 0c-202.52,-578.97 -645.42,-868.43 -1328.71,-868.43 -457.5,0 -825.01,153.42 -1102.92,460.27 -277.91,301.07 -416.85,703.44 -416.85,1207.14 0,451.58 138.94,839.49 416.85,1163.71 283.8,324.2 651.33,486.33 1102.92,486.33 341.48,0 631.18,-81.05 868.44,-243.17 237.26,-162.12 396.7,-402.37 477.64,-720.81l1528.46 0c-75.39,550 -263.32,1013.19 -564.49,1389.5 -301.17,370.54 -648.56,633.97 -1042.13,790.29 -388.02,156.32 -810.42,234.47 -1267.92,234.47 -393.57,0 -775.69,-66.59 -1146.34,-199.73 -364.75,-133.16 -694.76,-324.21 -990.03,-573.18 -295.26,-248.96 -532.52,-573.17 -712.11,-972.65 -173.68,-405.29 -260.53,-853.97 -260.53,-1346.08zm6606.75 1163.71l1511.09 0c0,196.86 95.53,350.26 286.59,460.28 191.05,110.01 416.85,165 677.38,165 243.16,0 457.49,-52.09 642.65,-156.32 191.06,-104.21 286.59,-243.17 286.59,-416.85 0,-92.64 -17.37,-173.69 -52.11,-243.17 -28.83,-75.27 -78.16,-133.14 -147.64,-173.68 -69.48,-46.31 -133.04,-81.05 -191.06,-104.21 -52.11,-28.94 -135.82,-49.24 -251.84,-60.8 -109.77,-17.36 -187.93,-28.94 -234.49,-34.73 -46.2,-5.81 -127.13,-11.57 -243.15,-17.37 -295.28,-17.37 -570.06,-60.8 -825.03,-130.26 -248.72,-69.48 -483.21,-170.81 -703.44,-303.95 -213.98,-133.16 -384.89,-312.65 -512.38,-538.44 -121.59,-231.59 -182.38,-500.82 -182.38,-807.64 0,-631.08 228.92,-1120.29 686.06,-1467.67 457.5,-347.37 1016.08,-521.06 1676.1,-521.06 405.39,0 781.6,72.35 1128.96,217.1 353.29,138.96 642.65,364.74 868.45,677.39 231.7,306.84 344.6,671.58 338.69,1094.24l-1485.03 0c-5.56,-196.86 -86.85,-344.5 -243.17,-442.91 -156.32,-98.41 -350.15,-147.63 -581.86,-147.63 -549.89,0 -825.01,185.26 -825.01,555.8 0,191.06 72.61,324.2 217.1,399.48 150.76,75.27 388.02,130.27 712.13,165.01 289.71,23.16 541.55,54.98 755.54,95.52 214.32,40.53 431.44,107.1 651.33,199.74 220.24,86.85 399.48,196.86 538.43,330.02 138.96,127.38 251.86,301.07 338.69,521.06 92.76,214.23 138.96,463.16 138.96,746.87 0,602.11 -245.95,1076.86 -738.17,1424.24 -491.89,347.37 -1073.75,521.06 -1745.57,521.06 -694.76,0 -1288.08,-173.69 -1780.31,-521.06 -486.33,-347.39 -723.59,-842.39 -712.12,-1485.04z"/>
    <path class="fil2" d="M8835.18 38023.31l1208.87 0c0,157.46 76.41,280.23 229.26,368.21 152.85,87.99 333.48,132.02 541.91,132.02 194.53,0 365.9,-41.68 514.11,-125.06 152.85,-83.37 229.27,-194.53 229.27,-333.48 0,-74.1 -13.89,-138.96 -41.68,-194.53 -23.17,-60.2 -62.54,-106.54 -118.11,-138.95 -55.58,-37.07 -106.54,-64.86 -152.85,-83.37 -41.68,-23.17 -108.83,-39.36 -201.47,-48.64 -87.99,-13.89 -150.53,-23.16 -187.59,-27.78 -37.06,-4.62 -101.88,-9.28 -194.53,-13.91 -236.21,-13.89 -456.2,-48.63 -660.01,-104.2 -199.15,-55.58 -386.73,-136.62 -562.76,-243.17 -171.36,-106.55 -308.02,-250.11 -409.9,-430.74 -97.26,-185.26 -145.89,-400.64 -145.89,-646.13 0,-504.84 182.95,-896.22 548.85,-1174.13 365.88,-277.91 812.86,-416.85 1340.87,-416.85 324.21,0 625.27,57.91 903.18,173.68 282.52,111.17 514.11,291.8 694.75,541.91 185.26,245.49 275.58,537.29 270.96,875.39l-1188.04 0c-4.6,-157.46 -69.47,-275.57 -194.52,-354.32 -125.06,-78.75 -280.23,-118.11 -465.48,-118.11 -440.02,0 -660.02,148.23 -660.02,444.64 0,152.84 57.9,259.38 173.68,319.58 120.43,60.19 310.31,104.22 569.7,132 231.59,18.53 433.07,44.02 604.43,76.42 171.36,32.42 345.05,85.71 521.07,159.79 176.01,69.48 319.58,157.47 430.74,264.01 111.17,101.89 201.48,240.84 270.94,416.85 74.11,171.36 111.17,370.56 111.17,597.5 0,481.71 -196.86,861.48 -590.53,1139.39 -393.68,277.91 -859.16,416.85 -1396.46,416.85 -555.8,0 -1030.56,-138.94 -1424.24,-416.85 -389.06,-277.91 -578.97,-673.91 -569.69,-1188.02zm6314.15 -1757.74l55.58 0 882.34 -1611.81 1347.83 0 0 187.58 -1625.73 2751.22 0 1924.46 -1271.4 0 0 -1924.46 -1632.67 -2751.22 0 -187.58 1361.72 0 882.33 1611.81zm2438.09 1757.74l1208.87 0c0,157.46 76.42,280.23 229.28,368.21 152.83,87.99 333.48,132.02 541.91,132.02 194.52,0 365.88,-41.68 514.11,-125.06 152.85,-83.37 229.27,-194.53 229.27,-333.48 0,-74.1 -13.9,-138.96 -41.68,-194.53 -23.17,-60.2 -62.53,-106.54 -118.11,-138.95 -55.59,-37.07 -106.55,-64.86 -152.85,-83.37 -41.69,-23.17 -108.83,-39.36 -201.48,-48.64 -87.99,-13.89 -150.52,-23.16 -187.58,-27.78 -37.07,-4.62 -101.9,-9.28 -194.54,-13.91 -236.22,-13.89 -456.21,-48.63 -660.02,-104.2 -199.14,-55.58 -386.73,-136.62 -562.74,-243.17 -171.36,-106.55 -308.02,-250.11 -409.91,-430.74 -97.26,-185.26 -145.91,-400.64 -145.91,-646.13 0,-504.84 182.97,-896.22 548.87,-1174.13 365.89,-277.91 812.86,-416.85 1340.87,-416.85 324.2,0 625.28,57.91 903.17,173.68 282.53,111.17 514.12,291.8 694.76,541.91 185.25,245.49 275.57,537.29 270.96,875.39l-1188.03 0c-4.62,-157.46 -69.48,-275.57 -194.53,-354.32 -125.06,-78.75 -280.23,-118.11 -465.48,-118.11 -440.03,0 -660.02,148.23 -660.02,444.64 0,152.84 57.91,259.38 173.7,319.58 120.43,60.19 310.31,104.22 569.69,132 231.6,18.53 433.08,44.02 604.44,76.42 171.36,32.42 345.05,85.71 521.06,159.79 176.02,69.48 319.59,157.47 430.76,264.01 111.15,101.89 201.47,240.84 270.95,416.85 74.1,171.36 111.17,370.56 111.17,597.5 0,481.71 -196.86,861.48 -590.54,1139.39 -393.69,277.91 -859.17,416.85 -1396.46,416.85 -555.79,0 -1030.56,-138.94 -1424.24,-416.85 -389.06,-277.91 -578.97,-673.91 -569.7,-1188.02zm5513.42 -2257.95l-1194.96 0 0 -1111.6 3612.7 0 0 1111.6 -1188.02 0 0 3751.66 -1229.72 0 0 -3751.66zm6104.2 -1111.6l0 1104.65 -1764.67 0 0 694.76 1625.72 0 0 1111.61 -1625.72 0 0 792.02 1827.2 0 0 1160.22 -3098.61 0 0 -4863.26 3036.07 0zm3322.93 2091.2l1924.46 -2105.11 451.59 0 0 4877.16 -1271.39 0 0 -2244.04 -1035.19 1083.81 -146.07 0 -1035.18 -1083.81 0 2244.04 -1271.39 0 0 -4877.16 451.59 0 1931.58 2105.11zm3174.68 1278.35l1208.87 0c0,157.46 76.42,280.23 229.26,368.21 152.85,87.99 333.48,132.02 541.91,132.02 194.53,0 365.79,-41.68 514.12,-125.06 152.84,-83.37 229.26,-194.53 229.26,-333.48 0,-74.1 -13.89,-138.96 -41.69,-194.53 -23.26,-60.2 -62.52,-106.54 -118.11,-138.95 -55.58,-37.07 -106.64,-64.86 -152.83,-83.37 -41.69,-23.17 -109.08,-39.36 -201.48,-48.64 -88.23,-13.89 -150.76,-23.16 -187.59,-27.78 -37.17,-4.62 -102.12,-9.28 -194.52,-13.91 -236.22,-13.89 -456.45,-48.63 -660.02,-104.2 -199.39,-55.58 -386.98,-136.62 -562.76,-243.17 -171.6,-106.55 -308.11,-250.11 -409.89,-430.74 -97.27,-185.26 -145.91,-400.64 -145.91,-646.13 0,-504.84 182.72,-896.22 548.86,-1174.13 365.79,-277.91 812.87,-416.85 1340.87,-416.85 324.11,0 625.27,57.91 903.18,173.68 282.42,111.17 514.11,291.8 694.76,541.91 185.15,245.49 275.46,537.29 270.95,875.39l-1188.02 0c-4.87,-157.46 -69.48,-275.57 -194.53,-354.32 -125.06,-78.75 -280.33,-118.11 -465.48,-118.11 -440.13,0 -660.02,148.23 -660.02,444.64 0,152.84 57.67,259.38 173.69,319.58 120.2,60.19 310.21,104.22 569.7,132 231.35,18.53 432.83,44.02 604.43,76.42 171.26,32.42 344.96,85.71 521.07,159.79 175.78,69.48 319.59,157.47 430.74,264.01 111.17,101.89 201.48,240.84 270.96,416.85 73.98,171.36 111.15,370.56 111.15,597.5 0,481.71 -196.95,861.48 -590.54,1139.39 -393.91,277.91 -859.41,416.85 -1396.45,416.85 -555.81,0 -1030.67,-138.94 -1424.24,-416.85 -389.07,-277.91 -579.08,-673.91 -569.7,-1188.02z"/>
   </g>
   <g>
    <path class="fil3" d="M29339.58 6895.15c4107.39,-83.91 8571.18,-175.12 10583.93,5617.12 5345.21,979.41 6690.24,1784.51 6951.26,2158 594.7,850.76 1514.76,2614.51 1328.01,5000.76l186.75 0c-41.51,1362.58 -1033.35,4249.62 -3174.75,4565.01 0,-24.61 15.36,-87.39 38.18,-181.6 248.59,-1018.34 1391.08,-5704.06 -6263.19,-5400.16 -13.28,0 -40.26,1.5 -80.51,3.7 -1044.56,57.19 -10904.9,596.94 -12743.03,-11810.47 996.05,92.14 2071.86,70.17 3173.36,47.63zm3228.69 1411.55c-464.25,-27.26 -902.91,-53.03 -1297.53,-110.44 599.67,4371.34 3623.79,4253.98 5886.78,4166.11 712.15,-27.63 1349.17,-52.37 1811.49,66.9 -1372.82,-3827.22 -4179.88,-3992.09 -6400.74,-4122.57z"/>
    <ellipse class="fil1" cx="41853.26" cy="22845.81" rx="3320" ry="3631.25"/>
    <path class="fil2" d="M32536.5 17824.29c-1728.78,-851.49 -4046.27,-2600.69 -4917.76,-3548.26 1560.4,5494.61 -1563.19,8887.95 -3091.77,9897.77l13715.78 0c-581,-2718.25 186.75,-3569 1888.25,-5166.76 -3880.26,435.75 -6204.27,-498 -7594.51,-1182.75z"/>
    <path class="fil1" d="M104.16 24153.05l0 -23652.49 4790.6 0 0 20619.59c3981.78,67.85 12509.43,114 14765.79,-244.23 2820.42,-447.82 3255.92,-2992.19 1990.87,-4417.06 -1265.05,-1424.83 -3359.64,-1689.44 -5101.65,-2340.83 -1429.38,-534.44 -2799.72,-1153.25 -3836.63,-1931.54 -1036.93,-778.29 -1650.01,-1709.8 -1970.14,-2750.08 -320.13,-1040.28 -725.84,-3786.04 518.46,-5780.83 1244.29,-1994.78 3559.55,-2975.07 5288.32,-3297.5 2716.72,-506.69 6905.91,-814.2 12111.26,1506.27 6174.55,2257.84 7774.8,4881.57 8625.55,6368.02 -572.29,-992.27 -5337.46,-1971.7 -7650.83,-2337.73 -1147.52,-203.56 -3575.32,-663.59 -4106.23,-875.25 -530.91,-211.68 -4707.64,-1323.08 -7382.91,-895.64 -2675.26,427.44 -3165.09,2179.87 -2737.49,3073.6 497.77,1040.28 1555.4,1759.07 2882.65,2239.06 1638.34,592.46 5495.72,1677.44 7030.37,3136.83 4666.14,4437.4 1306.5,10503.18 -2322.73,11579.81l-22895.27 0z"/>
   </g>
  </g>
 </g>
</svg>
