<svg width="39" height="41" viewBox="0 0 39 41" fill="none" xmlns="http://www.w3.org/2000/svg">
<path d="M17.6119 2.47912C18.1895 2.16489 18.8393 2 19.5 2C20.1607 2 20.8105 2.16489 21.3881 2.47912L36.0006 10.43C36.3035 10.595 36.5559 10.8364 36.7316 11.1291C36.9074 11.4218 37 11.7552 37 12.0948V27.7813C36.9998 28.4607 36.8142 29.1276 36.4624 29.7131C36.1106 30.2985 35.6054 30.7812 34.9992 31.111L21.3881 38.5209C20.8105 38.8351 20.1607 39 19.5 39C18.8393 39 18.1895 38.8351 17.6119 38.5209L4.00083 31.111C3.39486 30.7813 2.88984 30.299 2.53806 29.7139C2.18627 29.1288 2.00051 28.4622 2 27.7832V12.0948C1.99999 11.7552 2.09264 11.4218 2.26836 11.1291C2.44409 10.8364 2.69649 10.595 2.99944 10.43L17.6139 2.47912H17.6119Z" stroke="#FE0001" stroke-width="3" stroke-linecap="round" stroke-linejoin="round"/>
<path d="M10.75 6.21259L28.25 15.7369V22.4039" stroke="#FE0001" stroke-width="3" stroke-linecap="round" stroke-linejoin="round"/>
<path d="M7.83331 21.1238L13.6666 24.3087" stroke="#FE0001" stroke-width="3" stroke-linecap="round" stroke-linejoin="round"/>
<path d="M2 10.9748L19.5 20.499M19.5 20.499L36 11.6809M19.5 20.499V38.5952" stroke="#FE0001" stroke-width="3" stroke-linejoin="round"/>
</svg>
