<svg width="10" height="8" viewBox="0 0 10 8" fill="none" xmlns="http://www.w3.org/2000/svg">
<path d="M9.64286 0H0.357143C0.159598 0 0 0.1625 0 0.363636V7.63636C0 7.8375 0.159598 8 0.357143 8H9.64286C9.8404 8 10 7.8375 10 7.63636V0.363636C10 0.1625 9.8404 0 9.64286 0ZM8.74107 1.2375L5.21987 4.02727C5.13281 4.09659 5.01116 4.09659 4.92411 4.02727L1.40179 1.2375C1.38851 1.22707 1.37877 1.21266 1.37393 1.19631C1.3691 1.17996 1.36941 1.16248 1.37483 1.14631C1.38024 1.13015 1.39049 1.11612 1.40413 1.10618C1.41777 1.09625 1.43412 1.09091 1.45089 1.09091H8.69196C8.70874 1.09091 8.72509 1.09625 8.73873 1.10618C8.75237 1.11612 8.76262 1.13015 8.76803 1.14631C8.77345 1.16248 8.77376 1.17996 8.76892 1.19631C8.76409 1.21266 8.75435 1.22707 8.74107 1.2375Z" fill="#FC0002"/>
</svg>
